<?xml version="1.0" encoding="UTF-8" standalone="no"?>
<svg
   xmlns:dc="http://purl.org/dc/elements/1.1/"
   xmlns:cc="http://creativecommons.org/ns#"
   xmlns:rdf="http://www.w3.org/1999/02/22-rdf-syntax-ns#"
   xmlns:svg="http://www.w3.org/2000/svg"
   xmlns="http://www.w3.org/2000/svg"
   xmlns:sodipodi="http://sodipodi.sourceforge.net/DTD/sodipodi-0.dtd"
   xmlns:inkscape="http://www.inkscape.org/namespaces/inkscape"
   width="200"
   height="50"
   version="1.1"
   id="svg8"
   sodipodi:docname="logo.svg"
   inkscape:version="0.92.3 (2405546, 2018-03-11)">
  <metadata
     id="metadata14">
    <rdf:RDF>
      <cc:Work
         rdf:about="">
        <dc:format>image/svg+xml</dc:format>
        <dc:type
           rdf:resource="http://purl.org/dc/dcmitype/StillImage" />
        <dc:title></dc:title>
      </cc:Work>
    </rdf:RDF>
  </metadata>
  <defs
     id="defs12" />
  <sodipodi:namedview
     pagecolor="#ffffff"
     bordercolor="#666666"
     borderopacity="1"
     objecttolerance="10"
     gridtolerance="10"
     guidetolerance="10"
     inkscape:pageopacity="0"
     inkscape:pageshadow="2"
     inkscape:window-width="1920"
     inkscape:window-height="1017"
     id="namedview10"
     showgrid="true"
     inkscape:zoom="4.7376154"
     inkscape:cx="104.21377"
     inkscape:cy="7.8823726"
     inkscape:window-x="1920"
     inkscape:window-y="26"
     inkscape:window-maximized="1"
     inkscape:current-layer="svg8">
    <inkscape:grid
       type="xygrid"
       id="grid821" />
  </sodipodi:namedview>
  <path
     d="M0 0h200v50H0z"
     id="path2"
     style="fill:#e1661e;fill-opacity:1" />
  <path
     id="path837"
     d="m 189.58478,44.930794 h -4.30796 V 16.487887 h 4.30796 z M 184.9135,8.7802751 q 0,-1.4792388 0.72664,-2.1539793 0.72664,-0.700692 1.81661,-0.700692 1.03806,0 1.79066,0.700692 Q 190,7.3269879 190,8.7802751 q 0,1.4532869 -0.75259,2.1799309 -0.7526,0.700692 -1.79066,0.700692 -1.08997,0 -1.81661,-0.700692 -0.72664,-0.726644 -0.72664,-2.1799309 z M 172.04153,41.115915 h -0.23357 q -2.98443,4.33391 -8.92733,4.33391 -5.57959,0 -8.69378,-3.814879 -3.08823,-3.814879 -3.08823,-10.847751 0,-7.032872 3.11419,-10.925605 3.11418,-3.892734 8.66782,-3.892734 5.78719,0 8.87543,4.204153 h 0.33737 l -0.18166,-2.050173 -0.10381,-1.99827 V 4.5501713 h 4.30796 V 44.930794 h -3.50346 z m -8.61592,0.726643 q 4.41176,0 6.38408,-2.387543 1.99827,-2.413495 1.99827,-7.759515 v -0.908305 q 0,-6.046712 -2.02422,-8.615917 -1.99827,-2.595155 -6.41003,-2.595155 -3.78893,0 -5.81315,2.958477 -1.99827,2.932526 -1.99827,8.304498 0,5.449827 1.99827,8.226644 1.99827,2.776816 5.86505,2.776816 z m -22.83737,3.088236 -0.85641,-4.048443 h -0.20761 q -2.12803,2.67301 -4.25605,3.633218 -2.10208,0.934256 -5.26817,0.934256 -4.2301,0 -6.6436,-2.179931 -2.38754,-2.179931 -2.38754,-6.202422 0,-8.615917 13.78028,-9.031142 l 4.82699,-0.155709 v -1.764706 q 0,-3.347751 -1.45329,-4.930796 -1.42734,-1.608996 -4.59343,-1.608996 -3.55536,0 -8.04498,2.17993 l -1.32353,-3.295847 q 2.10208,-1.141869 4.59343,-1.790658 2.5173,-0.648789 5.0346,-0.648789 5.0865,0 7.52595,2.257786 2.4654,2.257785 2.4654,7.240484 v 19.411765 z m -9.73184,-3.036332 q 4.02249,0 6.30623,-2.205883 2.30969,-2.205882 2.30969,-6.17647 v -2.569204 l -4.30796,0.181661 q -5.13841,0.18166 -7.42214,1.608996 -2.25779,1.401384 -2.25779,4.385813 0,2.33564 1.40138,3.555363 1.42734,1.219724 3.97059,1.219724 z m -25.84775,3.036332 -5.216263,-16.686851 q -0.49308,-1.531142 -1.842561,-6.955018 h -0.207612 q -1.038062,4.541523 -1.816609,7.006921 L 90.553633,44.930794 H 85.570934 L 77.811418,16.487887 h 4.515571 q 2.750865,10.717993 4.178201,16.32353 1.453287,5.605536 1.660899,7.551903 h 0.207613 q 0.285467,-1.479239 0.908304,-3.814879 0.648789,-2.361592 1.115917,-3.737024 l 5.216263,-16.32353 h 4.671284 l 5.0865,16.32353 q 1.45329,4.463667 1.97232,7.5 h 0.20761 q 0.10381,-0.934256 0.54499,-2.880623 0.46712,-1.946367 5.42387,-20.942907 h 4.46367 l -7.86332,28.442907 z m -37.188586,0.519031 q -6.17647,0 -9.576124,-3.788927 -3.373702,-3.814879 -3.373702,-10.769896 0,-7.136679 3.425605,-11.029412 3.451557,-3.892734 9.809689,-3.892734 2.050172,0 4.100345,0.441177 2.050173,0.441176 3.217994,1.038062 l -1.32353,3.65917 q -1.427335,-0.570935 -3.114187,-0.934256 -1.686851,-0.389274 -2.984429,-0.389274 -8.66782,0 -8.66782,11.055363 0,5.242215 2.102076,8.044983 2.128028,2.802768 6.280277,2.802768 3.555363,0 7.292388,-1.531142 v 3.814879 q -2.854672,1.479239 -7.188582,1.479239 z M 43.321797,44.930794 V 26.53114 q 0,-3.477509 -1.583045,-5.190311 -1.583045,-1.712803 -4.956747,-1.712803 -4.463668,0 -6.539792,2.413495 -2.076125,2.413494 -2.076125,7.967128 V 44.930794 H 23.85813 V 16.487887 h 3.50346 l 0.700692,3.892734 h 0.207612 q 1.32353,-2.102076 3.711073,-3.243945 2.387543,-1.16782 5.320069,-1.16782 5.138408,0 7.733564,2.49135 2.595156,2.465398 2.595156,7.915225 v 18.555363 z m -28.650518,0 H 10.36332 V 16.487887 h 4.307959 z M 9.9999987,8.7802751 q 0,-1.4792388 0.7266433,-2.1539793 0.726644,-0.700692 1.816609,-0.700692 1.038063,0 1.790658,0.700692 0.752595,0.7006921 0.752595,2.1539793 0,1.4532869 -0.752595,2.1799309 -0.752595,0.700692 -1.790658,0.700692 -1.089965,0 -1.816609,-0.700692 Q 9.9999987,10.233562 9.9999987,8.7802751 Z"
     inkscape:connector-curvature="0"
     style="fill:#ffffff;fill-opacity:1" />
</svg>
