<svg xmlns="http://www.w3.org/2000/svg" width="200" height="200"><path fill="#e1661e" d="M0 0h200v200H0z"/><g fill="#fff"><path d="M14.671 119.492h-4.308V91.675h4.308zM10 84.137q0-1.447.727-2.107.726-.685 1.816-.685 1.038 0 1.79.685.753.686.753 2.107 0 1.421-.752 2.132-.753.685-1.79.685-1.09 0-1.817-.685-.727-.71-.727-2.132zM43.322 119.492v-17.995q0-3.4-1.583-5.076-1.583-1.675-4.957-1.675-4.464 0-6.54 2.36-2.076 2.361-2.076 7.792v14.594h-4.308V91.675h3.504l.7 3.807h.208q1.323-2.056 3.711-3.172 2.388-1.142 5.32-1.142 5.138 0 7.734 2.436 2.595 2.411 2.595 7.741v18.147zM67.82 120q-6.176 0-9.576-3.706-3.374-3.73-3.374-10.533 0-6.98 3.426-10.786 3.451-3.807 9.81-3.807 2.05 0 4.1.431t3.218 1.015L74.1 96.193q-1.427-.558-3.114-.914-1.687-.38-2.984-.38-8.668 0-8.668 10.812 0 5.127 2.102 7.868 2.128 2.74 6.28 2.74 3.556 0 7.293-1.497v3.731Q72.154 120 67.82 120zM105.009 119.492l-5.217-16.32q-.493-1.497-1.842-6.801h-.208q-1.038 4.441-1.816 6.852l-5.372 16.27H85.57l-7.76-27.818h4.516q2.75 10.482 4.178 15.965 1.453 5.482 1.661 7.385h.208q.285-1.446.908-3.73.649-2.31 1.116-3.655l5.216-15.965h4.671l5.087 15.965q1.453 4.365 1.972 7.335h.208q.104-.914.545-2.818.467-1.903 5.424-20.482h4.463l-7.863 27.817zM140.588 119.492l-.856-3.959h-.208q-2.128 2.614-4.256 3.553-2.102.914-5.268.914-4.23 0-6.644-2.132-2.387-2.132-2.387-6.066 0-8.426 13.78-8.832l4.827-.153v-1.726q0-3.274-1.453-4.822-1.427-1.574-4.594-1.574-3.555 0-8.045 2.132l-1.323-3.223q2.102-1.117 4.593-1.751 2.518-.635 5.035-.635 5.086 0 7.526 2.208 2.465 2.209 2.465 7.082v18.984zm-9.732-2.97q4.023 0 6.307-2.157 2.31-2.157 2.31-6.04v-2.513l-4.309.178q-5.138.178-7.422 1.573-2.258 1.371-2.258 4.29 0 2.284 1.402 3.477 1.427 1.193 3.97 1.193zM172.042 115.761h-.234Q168.824 120 162.881 120q-5.58 0-8.694-3.731-3.088-3.73-3.088-10.61 0-6.877 3.114-10.684 3.114-3.807 8.668-3.807 5.787 0 8.875 4.111h.337l-.181-2.005-.104-1.954V80h4.308v39.492h-3.504zm-8.616.711q4.411 0 6.384-2.335 1.998-2.36 1.998-7.589v-.888q0-5.914-2.024-8.426-1.999-2.539-6.41-2.539-3.79 0-5.813 2.894-1.999 2.868-1.999 8.122 0 5.33 1.999 8.045 1.998 2.716 5.865 2.716zM189.585 119.492h-4.308V91.675h4.308zm-4.671-35.355q0-1.447.726-2.107.727-.685 1.817-.685 1.038 0 1.79.685.753.686.753 2.107 0 1.421-.753 2.132-.752.685-1.79.685-1.09 0-1.817-.685-.726-.71-.726-2.132z"/></g></svg>