<?xml version="1.0" encoding="UTF-8" standalone="no"?>
<svg
   xmlns:dc="http://purl.org/dc/elements/1.1/"
   xmlns:cc="http://creativecommons.org/ns#"
   xmlns:rdf="http://www.w3.org/1999/02/22-rdf-syntax-ns#"
   xmlns:svg="http://www.w3.org/2000/svg"
   xmlns="http://www.w3.org/2000/svg"
   xmlns:sodipodi="http://sodipodi.sourceforge.net/DTD/sodipodi-0.dtd"
   xmlns:inkscape="http://www.inkscape.org/namespaces/inkscape"
   width="200"
   height="200"
   version="1.1"
   sodipodi:docname="icon.svg"
   inkscape:version="0.92.3 (2405546, 2018-03-11)"
   id="svg6">
  <metadata
     id="metadata12">
    <rdf:RDF>
      <cc:Work
         rdf:about="">
        <dc:format>image/svg+xml</dc:format>
        <dc:type
           rdf:resource="http://purl.org/dc/dcmitype/StillImage" />
        <dc:title></dc:title>
      </cc:Work>
    </rdf:RDF>
  </metadata>
  <defs
     id="defs10" />
  <sodipodi:namedview
     pagecolor="#ffffff"
     bordercolor="#666666"
     borderopacity="1"
     objecttolerance="10"
     gridtolerance="10"
     guidetolerance="10"
     inkscape:pageopacity="0"
     inkscape:pageshadow="2"
     inkscape:window-width="1920"
     inkscape:window-height="1017"
     id="namedview8"
     showgrid="true"
     inkscape:zoom="3.337544"
     inkscape:cx="69.367655"
     inkscape:cy="93.118966"
     inkscape:window-x="1920"
     inkscape:window-y="26"
     inkscape:window-maximized="1"
     inkscape:current-layer="svg6">
    <inkscape:grid
       type="xygrid"
       id="grid822" />
  </sodipodi:namedview>
  <path
     d="M0 0h200v200H0z"
     id="path2"
     style="fill:#e1661e;fill-opacity:1"
      />
  <path
     id="path870"
     d="m 189.58453,119.9309 h -4.30795 V 91.488031 h 4.30795 z m -4.67127,-36.150471 q 0,-1.479237 0.72664,-2.153977 0.72664,-0.700691 1.8166,-0.700691 1.03807,0 1.79066,0.700691 0.75259,0.700691 0.75259,2.153977 0,1.453285 -0.75259,2.179928 -0.75259,0.700691 -1.79066,0.700691 -1.08996,0 -1.8166,-0.700691 -0.72664,-0.726643 -0.72664,-2.179928 z M 172.0413,116.11603 h -0.23356 q -2.98442,4.3339 -8.92732,4.3339 -5.57958,0 -8.69376,-3.81487 -3.08823,-3.81488 -3.08823,-10.84774 0,-7.032862 3.11418,-10.925591 3.11418,-3.892728 8.66781,-3.892728 5.78719,0 8.87542,4.204146 h 0.33737 l -0.18166,-2.05017 -0.10381,-1.998267 V 79.55033 h 4.30795 v 40.38057 h -3.50345 z m -8.6159,0.72664 q 4.41176,0 6.38407,-2.38754 1.99827,-2.41349 1.99827,-7.75951 v -0.9083 q 0,-6.046705 -2.02422,-8.615905 -1.99826,-2.595153 -6.41002,-2.595153 -3.78893,0 -5.81315,2.958474 -1.99826,2.932524 -1.99826,8.304484 0,5.44982 1.99826,8.22664 1.99827,2.77681 5.86505,2.77681 z m -22.83734,3.08823 -0.8564,-4.04844 h -0.20762 q -2.12802,2.67301 -4.25605,3.63322 -2.10207,0.93425 -5.26816,0.93425 -4.23009,0 -6.64359,-2.17993 -2.38754,-2.17992 -2.38754,-6.20241 0,-8.61591 13.78026,-9.03113 l 4.82699,-0.15571 v -1.7647 q 0,-3.34775 -1.45329,-4.930793 -1.42733,-1.608995 -4.59342,-1.608995 -3.55536,0 -8.04497,2.179928 l -1.32353,-3.295843 q 2.10207,-1.141867 4.59342,-1.790655 2.5173,-0.648788 5.0346,-0.648788 5.08649,0 7.52594,2.257782 2.46539,2.257783 2.46539,7.240474 v 19.41174 z m -9.73183,-3.03633 q 4.02249,0 6.30622,-2.20588 2.30969,-2.20588 2.30969,-6.17646 v -2.5692 l -4.30795,0.18166 q -5.1384,0.18166 -7.42214,1.60899 -2.25778,1.40139 -2.25778,4.38581 0,2.33564 1.40138,3.55536 1.42733,1.21972 3.97058,1.21972 z m -25.84771,3.03633 -5.216261,-16.68683 q -0.493079,-1.53114 -1.842558,-6.955007 h -0.207612 q -1.038061,4.541517 -1.816607,7.006907 L 90.553517,119.9309 H 85.570824 L 77.811319,91.488031 h 4.515565 q 2.750861,10.717979 4.178195,16.323509 1.453285,5.60553 1.660898,7.55189 h 0.207612 q 0.285466,-1.47923 0.908303,-3.81487 0.648788,-2.36159 1.115916,-3.73702 l 5.216256,-16.323509 h 4.671276 l 5.0865,16.323509 q 1.45328,4.46366 1.97231,7.49999 h 0.20761 q 0.10381,-0.93426 0.54499,-2.88062 0.46712,-1.94636 5.42386,-20.942879 h 4.46367 l -7.86331,28.442869 z m -37.188541,0.51903 q -6.176462,0 -9.576112,-3.78892 -3.373698,-3.81488 -3.373698,-10.76988 0,-7.136672 3.425601,-11.029401 3.451553,-3.892728 9.809676,-3.892728 2.050171,0 4.100341,0.441175 2.05017,0.441176 3.217989,1.038061 l -1.323528,3.659165 q -1.427334,-0.570933 -3.114183,-0.934255 -1.686849,-0.389273 -2.984425,-0.389273 -8.667809,0 -8.667809,11.055346 0,5.24221 2.102074,8.04498 2.128025,2.80276 6.280268,2.80276 3.555359,0 7.292378,-1.53114 v 3.81487 q -2.854667,1.47924 -7.188572,1.47924 z M 43.321742,119.9309 v -18.39963 q 0,-3.477504 -1.583043,-5.190304 -1.583043,-1.712801 -4.956741,-1.712801 -4.463662,0 -6.539784,2.413492 -2.076122,2.413492 -2.076122,7.967113 V 119.9309 H 23.858099 V 91.488031 h 3.503456 l 0.700691,3.892728 h 0.207612 q 1.323528,-2.102073 3.711068,-3.24394 2.38754,-1.167818 5.320062,-1.167818 5.138402,0 7.733554,2.491346 2.595153,2.465394 2.595153,7.915213 v 18.55534 z m -28.650482,0 H 10.363307 V 91.488031 H 14.67126 Z M 9.9999861,83.780429 q 0,-1.479237 0.7266429,-2.153977 0.726642,-0.700691 1.816606,-0.700691 1.038061,0 1.790655,0.700691 0.752595,0.700691 0.752595,2.153977 0,1.453285 -0.752595,2.179928 -0.752594,0.700691 -1.790655,0.700691 -1.089964,0 -1.816606,-0.700691 -0.7266429,-0.726643 -0.7266429,-2.179928 z"
     style="fill:#ffffff;fill-opacity:1" />
</svg>
