<svg xmlns="http://www.w3.org/2000/svg" width="200" height="50"><path fill="#e1661e" d="M0 0h200v50H0z"/><g fill="#fff"><path d="M10 16.003h4.468v28.265H10zM10 5h4.468v5.88H10zM46.403 27.208v17.06h-4.468V27.36q0-4.013-1.506-6.007-1.506-1.993-4.517-1.993-3.618 0-5.707 2.397-2.088 2.398-2.088 6.536v15.975h-4.493V16.003h4.493v4.391q1.602-2.549 3.764-3.81 2.185-1.262 5.027-1.262 4.687 0 7.09 3.028 2.405 3.003 2.405 8.858zM74.938 17.088v4.341q-1.894-1.085-3.813-1.615-1.894-.555-3.837-.555-4.347 0-6.751 2.877-2.404 2.851-2.404 8.025 0 5.173 2.404 8.05 2.404 2.852 6.751 2.852 1.943 0 3.837-.53 1.919-.555 3.813-1.64v4.29q-1.87.908-3.886 1.363-1.991.454-4.25.454-6.144 0-9.762-4.013-3.619-4.012-3.619-10.826 0-6.915 3.643-10.877 3.667-3.962 10.03-3.962 2.064 0 4.031.454 1.967.429 3.813 1.312zM80.16 16.003h4.468l5.585 22.057 5.561-22.057h5.27l5.586 22.057 5.561-22.057h4.468l-7.115 28.265h-5.27l-5.853-23.167-5.876 23.167h-5.27zM135.82 30.06q-5.415 0-7.504 1.287-2.088 1.287-2.088 4.391 0 2.473 1.554 3.937 1.578 1.439 4.274 1.439 3.716 0 5.95-2.726 2.258-2.75 2.258-7.293V30.06zm8.913-1.918v16.126h-4.469v-4.29q-1.53 2.574-3.812 3.81Q134.169 45 130.866 45q-4.177 0-6.654-2.423-2.453-2.448-2.453-6.536 0-4.77 3.06-7.192 3.084-2.423 9.18-2.423h6.265v-.454q0-3.205-2.04-4.947-2.015-1.766-5.682-1.766-2.332 0-4.541.58-2.21.58-4.25 1.741v-4.29q2.452-.984 4.76-1.464 2.307-.504 4.492-.504 5.901 0 8.816 3.18 2.914 3.18 2.914 9.64zM171.86 20.293V5h4.468v39.268h-4.469v-4.24q-1.408 2.524-3.57 3.76Q166.152 45 163.141 45q-4.93 0-8.038-4.088-3.085-4.089-3.085-10.751 0-6.663 3.085-10.75 3.108-4.09 8.038-4.09 3.011 0 5.148 1.237 2.162 1.212 3.57 3.735zm-15.228 9.868q0 5.123 2.016 8.05 2.04 2.903 5.586 2.903 3.545 0 5.585-2.903 2.04-2.927 2.04-8.05 0-5.123-2.04-8.025-2.04-2.928-5.585-2.928-3.546 0-5.586 2.928-2.016 2.902-2.016 8.025zM185.532 16.003H190v28.265h-4.468zm0-11.003H190v5.88h-4.468z"/></g></svg>